<svg width="100" height="125.00000000000001" xmlns="http://www.w3.org/2000/svg" xmlns:svg="http://www.w3.org/2000/svg">
 <g>
  <title>Layer 1</title>
  <path fill="#ffff00" id="svg_1" d="m91.118344,80.339844c3.409,-5 3.207,-8.818 3.8,-10.533c-13.391,3.533 -30.124,6.158 -46.54,6.158c-15.116,0 -32.851,-2.625 -43.085,-6.045c0.466,2.368 1.234,7.42 3.82,10.42l16.414,0l0,4l-15,0l1,3l16,0l0,3l-14.33,0c8.241,11 21.783,19.943 37.037,19.975c12.293,0.025 14.293,-0.975 18.87,-3.975l-31.577,0l0,-3l18,0l0,-4l-13,0l0,-4c0,0 33,0 36,0s5,-5 5,-5l-35,0l0,-3l25,0l0,-4l-27,0l0,-3l44.591,0z"/>
  <path fill="#ffff00" id="svg_2" d="m57.527344,63.339844l11,0l0,-3l-16,0l0,-5l28,0l0,-5l-21,0l0,-4l19,0l0,-3l-27,0l0,-5l12,0l0,-3l-18,0l0,-5l24,0l0,-3l-21,0l0,-4l11,0l0,-9.753c-1,-0.163 -9.352,-0.247 -10.949,-0.247c-24.976,0 -44.286,21.937 -44.286,46.913c0,2.252 0.374,4.635 0.777,7.07c13.458,3.017 28.093,5.017 43.246,5.017c16.589,0 32.212,-1 47.026,-4.395c0.13,-0.539 0.263,-0.605 0.287,-0.605l-38.101,0l0,-4zm-28.673,-6.799c-5.592,0 -10.125,-4.534 -10.125,-10.125c0,-5.593 4.534,-10.125 10.125,-10.125s10.125,4.533 10.125,10.125c0.001,5.591 -4.533,10.125 -10.125,10.125z"/>
 </g>
</svg>
